<svg width="24" height="24" viewBox="0 0 24 24" fill="none" xmlns="http://www.w3.org/2000/svg">
<g clip-path="url(#clip0)">
<path d="M21.8939 9.96464L12.5335 0.602888C11.9815 0.0521998 11.0885 0.0587154 10.5436 0.602185C9.99571 1.15151 9.99571 2.04345 10.5436 2.59208L19.9054 11.9532C20.4538 12.5016 21.3454 12.5016 21.8939 11.9532C22.4439 11.4032 22.4439 10.5145 21.8939 9.96464Z" fill="white"/>
<path d="M9.84912 3.88615L9.77867 4.23931C9.2824 6.72172 8.07631 9.08005 6.44501 10.9915L11.5378 16.0843C13.449 14.4533 15.7749 13.2149 18.2574 12.718L18.6112 12.6475L9.84912 3.88615Z" fill="white"/>
<path d="M5.51132 12.0464L2.0307 15.5263C1.20828 16.3487 1.20485 17.6839 2.0307 18.5098L4.01923 20.4983C4.84166 21.3207 6.17685 21.3241 7.00269 20.4983L10.483 17.018L5.51132 12.0464ZM6.00847 17.5155C5.73383 17.7902 5.28885 17.7902 5.01421 17.5155C4.73956 17.2409 4.73956 16.7959 5.01421 16.5213L6.00847 15.527C6.28311 15.2524 6.7281 15.2524 7.00274 15.527C7.27738 15.8016 7.27738 16.2466 7.00274 16.5213L6.00847 17.5155Z" fill="white"/>
<path d="M13.4188 20.8725L14.3753 19.916C15.2011 19.0902 15.1984 17.755 14.3753 16.9333L13.6649 16.2223C13.2722 16.4861 12.8972 16.7727 12.5326 17.0785L13.381 17.9282C13.655 18.2008 13.6569 18.6444 13.381 18.9217L12.4087 19.894L10.9799 18.5097L8.99127 20.4983L12.1814 23.5896C12.7259 24.1354 13.6197 24.1385 14.1693 23.5889C14.7179 23.0402 14.7179 22.1483 14.1693 21.5996L13.4188 20.8725Z" fill="white"/>
<path d="M16.2593 0C15.8706 0 15.5562 0.314485 15.5562 0.703126V2.10938C15.5562 2.49802 15.8706 2.81251 16.2593 2.81251C16.6479 2.81251 16.9624 2.49802 16.9624 2.10938V0.703126C16.9624 0.314485 16.6479 0 16.2593 0Z" fill="white"/>
<path d="M21.8843 5.62501H20.478C20.0894 5.62501 19.7749 5.9395 19.7749 6.32814C19.7749 6.71678 20.0894 7.03126 20.478 7.03126H21.8843C22.2729 7.03126 22.5874 6.71678 22.5874 6.32814C22.5874 5.9395 22.2729 5.62501 21.8843 5.62501Z" fill="white"/>
<path d="M20.9751 1.61222C20.7004 1.33757 20.2555 1.33757 19.9808 1.61222L18.5746 3.01847C18.2999 3.29311 18.2999 3.73809 18.5746 4.01274C18.8492 4.28738 19.2942 4.28742 19.5688 4.01274L20.9751 2.60648C21.2497 2.33184 21.2497 1.88686 20.9751 1.61222Z" fill="white"/>
</g>
<defs>
<clipPath id="clip0">
<rect width="24" height="24" fill="white"/>
</clipPath>
</defs>
</svg>
