<svg width="24" height="24" viewBox="0 0 24 24" fill="none" xmlns="http://www.w3.org/2000/svg">
<g clip-path="url(#clip0)">
<path d="M14.5003 11.3884H10.5261C10.0825 11.3884 9.72284 11.748 9.72284 12.1916V23.1841C9.72284 23.6278 10.0825 23.9874 10.5261 23.9874H14.5003C14.944 23.9874 15.3036 23.6278 15.3036 23.1841V12.1916C15.3036 11.748 14.9439 11.3884 14.5003 11.3884Z" fill="white"/>
<path d="M22.9845 5.89212H19.0103C18.5667 5.89212 18.207 6.25174 18.207 6.69542V23.1841C18.207 23.6278 18.5667 23.9874 19.0103 23.9874H22.9845C23.4281 23.9874 23.7878 23.6278 23.7878 23.1841V6.69542C23.7878 6.25174 23.4282 5.89212 22.9845 5.89212Z" fill="white"/>
<path d="M6.0158 14.9524H2.04161C1.59793 14.9524 1.23831 15.312 1.23831 15.7557V23.1968C1.23831 23.6404 1.59802 24.0001 2.04161 24.0001H6.0158C6.45947 24.0001 6.8191 23.6404 6.8191 23.1968V15.7557C6.8191 15.3121 6.45947 14.9524 6.0158 14.9524Z" fill="white"/>
<path d="M16.3527 1.53804L13.3739 0.123144C12.7409 -0.177711 11.9845 0.0919421 11.6841 0.7246C11.3835 1.35726 11.6528 2.11396 12.2855 2.41439L12.5277 2.52948L1.05555 6.61292C0.395579 6.84782 0.051092 7.57324 0.285908 8.23321C0.47075 8.75256 0.959407 9.07659 1.48087 9.07659C1.62208 9.07659 1.76558 9.05291 1.9062 9.00285L13.3351 4.9348L13.248 5.11829C12.9474 5.75103 13.2167 6.50765 13.8494 6.80808C14.0251 6.89154 14.2104 6.93111 14.3927 6.93111C14.8671 6.93103 15.3222 6.66366 15.5393 6.20662L16.9541 3.22784C17.2547 2.59518 16.9854 1.83856 16.3527 1.53804Z" fill="white"/>
</g>
<defs>
<clipPath id="clip0">
<rect width="24" height="24" fill="white"/>
</clipPath>
</defs>
</svg>
