<svg width="28" height="28" viewBox="0 0 28 28" fill="none" xmlns="http://www.w3.org/2000/svg">
<path d="M26.8995 21.0382C24.3826 18.8616 22.0534 15.7907 22.0534 8.1235C22.0534 3.6832 18.4409 0.0708008 14.0005 0.0708008C9.55946 0.0708008 5.94645 3.6832 5.94645 8.1235C5.94645 15.7977 3.61814 18.8656 1.09905 21.0403C0.400632 21.6486 0 22.5246 0 23.4439C0 23.9498 0.410159 24.3599 0.916079 24.3599H9.60966C10.0337 26.3952 11.841 27.9292 14 27.9292C16.159 27.9292 17.9664 26.3954 18.3903 24.3599H27.0839C27.5898 24.3599 28 23.9498 28 23.4439C28 22.5172 27.5984 21.6398 26.8995 21.0382ZM14 26.0971C12.8592 26.0971 11.8843 25.3729 11.5106 24.3599H16.4894C16.1157 25.3729 15.1408 26.0971 14 26.0971ZM2.19297 22.5278C2.22632 22.4916 2.26186 22.4572 2.29936 22.4246C6.13992 19.1089 7.77848 14.8319 7.77848 8.1235C7.77848 4.69345 10.5697 1.90296 14.0004 1.90296C17.4305 1.90296 20.2211 4.69345 20.2211 8.1235C20.2211 14.8258 21.86 19.1026 25.7025 22.4254C25.74 22.4578 25.7755 22.4919 25.809 22.5278H2.19297Z" fill="#94ADC3"/>
</svg>
