<svg width="8" height="29" viewBox="0 0 8 29" fill="none" xmlns="http://www.w3.org/2000/svg">
<path d="M4 18C5.933 18 7.5 16.433 7.5 14.5C7.5 12.567 5.933 11 4 11C2.067 11 0.5 12.567 0.5 14.5C0.5 16.433 2.067 18 4 18Z" fill="#AFB9D2"/>
<path d="M4 28.5C5.933 28.5 7.5 26.933 7.5 25C7.5 23.067 5.933 21.5 4 21.5C2.067 21.5 0.5 23.067 0.5 25C0.5 26.933 2.067 28.5 4 28.5Z" fill="#AFB9D2"/>
<path d="M4 7.5C5.933 7.5 7.5 5.933 7.5 4C7.5 2.067 5.933 0.5 4 0.5C2.067 0.5 0.5 2.067 0.5 4C0.5 5.933 2.067 7.5 4 7.5Z" fill="#AFB9D2"/>
</svg>
