<svg width="24" height="24" viewBox="0 0 24 24" fill="none" xmlns="http://www.w3.org/2000/svg">
<path d="M9.00676 10.5964C10.6626 8.485 13.2346 7.12799 16.1299 7.12799C16.561 7.12799 16.9872 7.15738 17.4085 7.21617V5.28598C16.1005 6.46173 12.7104 7.29945 8.72752 7.29945C4.76916 7.29945 1.38888 6.47153 0.0661621 5.30068V7.78445C0.727522 10.4936 8.91368 10.6013 9.00676 10.5964Z" fill="white"/>
<path d="M0.0612039 9.72443L0.0563049 12.2474C0.374737 13.6485 3.32881 14.7851 7.1549 15.0349C7.30187 13.8445 7.68398 12.7226 8.25226 11.7232C4.49476 11.6595 1.32514 10.8512 0.0612039 9.72443Z" fill="white"/>
<path d="M0.0563516 14.207L0.0514526 16.6075C0.0661495 16.5928 0.0808464 16.5781 0.0955433 16.5683C0.188624 18.1164 3.49542 19.3852 7.74282 19.5664C7.31661 18.5181 7.08636 17.3766 7.08636 16.1764V16.1715C3.84325 15.9706 1.18311 15.2162 0.0563516 14.207Z" fill="white"/>
<path d="M8.30618 20.7079C4.4752 20.6442 1.25658 19.7967 0.0514383 18.6405L0.0465393 20.9039C0.0465393 22.6087 3.93141 23.9902 8.72749 23.9902C9.6436 23.9902 10.5254 23.9412 11.3533 23.8481C10.0992 23.0643 9.05083 21.9865 8.30618 20.7079Z" fill="white"/>
<path d="M8.7275 6.16288C13.5273 6.16288 17.4182 4.78327 17.4182 3.08144C17.4182 1.37961 13.5273 0 8.7275 0C3.92773 0 0.0367432 1.37961 0.0367432 3.08144C0.0367432 4.78327 3.92773 6.16288 8.7275 6.16288Z" fill="white"/>
<path d="M16.1298 8.33803C11.804 8.33803 8.29639 11.8457 8.29639 16.1715C8.29639 20.4973 11.804 24 16.1298 24C20.4556 24 23.9633 20.4924 23.9633 16.1666C23.9633 11.8408 20.4556 8.33803 16.1298 8.33803ZM16.8451 20.3503V20.8451C16.8451 21.2419 16.5266 21.5603 16.1298 21.5603C15.733 21.5603 15.4146 21.2419 15.4146 20.8451V20.3503C14.9982 20.2229 14.6111 19.9927 14.3074 19.6693C14.038 19.3803 14.0527 18.9296 14.3368 18.6601C14.6258 18.3907 15.0618 18.4201 15.346 18.6895C15.6595 18.9884 16.1788 19.0227 16.2033 19.0227C16.7569 18.9835 17.1978 18.5181 17.1978 17.9547C17.1978 17.3668 16.7177 16.8818 16.1298 16.8818C14.7532 16.8818 13.6314 15.76 13.6314 14.3833C13.6314 13.2517 14.3858 12.2964 15.4146 11.9878V11.493C15.4146 11.0961 15.733 10.7777 16.1298 10.7777C16.5266 10.7777 16.8451 11.0961 16.8451 11.493V11.9878C17.2615 12.1151 17.6485 12.3454 17.9522 12.6687C18.2217 12.9578 18.207 13.4085 17.9228 13.6779C17.6338 13.9473 17.1586 13.9571 16.9137 13.6485C16.654 13.3203 16.0808 13.3154 16.0563 13.3154C15.5028 13.3546 15.0618 13.82 15.0618 14.3833C15.0618 14.9712 15.5419 15.4562 16.1298 15.4562C17.5064 15.4562 18.6283 16.5781 18.6283 17.9547C18.6283 19.0864 17.8739 20.0417 16.8451 20.3503Z" fill="white"/>
</svg>
