<svg width="100" height="100" viewBox="0 0 100 100" fill="none" xmlns="http://www.w3.org/2000/svg">
<path d="M68.7093 35.75C68.6626 34.6157 68.2407 33.4907 67.3717 32.625C66.5062 31.7593 65.381 31.3345 64.2467 31.2874C62.9843 31.2343 61.7062 31.6593 60.7438 32.625L50 43.3719L39.2562 32.625C38.2907 31.6593 37.0157 31.2374 35.7531 31.2874C34.6188 31.3343 33.4938 31.7562 32.6281 32.625C31.7626 33.4907 31.3376 34.6157 31.2905 35.75C31.2374 37.0126 31.6624 38.2874 32.6281 39.2531L43.3719 50L32.6281 60.7438C31.6624 61.7093 31.2405 62.9845 31.2905 64.2467C31.3374 65.381 31.7593 66.5062 32.6281 67.3717C33.4938 68.2374 34.6188 68.6624 35.7531 68.7093C37.0157 68.7624 38.2907 68.3376 39.2562 67.3717L50 56.6281L60.7469 67.375C61.7126 68.3405 62.9876 68.7624 64.25 68.7126C65.3843 68.6657 66.5093 68.2438 67.375 67.375C68.2407 66.5093 68.6655 65.3843 68.7126 64.25C68.7657 62.9874 68.3407 61.7126 67.375 60.7469L56.6281 50L67.3717 39.2562C68.3376 38.2907 68.7624 37.0157 68.7093 35.75ZM50 0C22.3876 0 0 22.3876 0 50C0 77.6124 22.3876 100 50 100C77.6124 100 100 77.6124 100 50C100 22.3876 77.6124 0 50 0ZM50 90.625C27.6 90.625 9.375 72.4 9.375 50C9.375 27.6 27.6 9.375 50 9.375C72.4 9.375 90.625 27.6 90.625 50C90.625 72.4 72.4 90.625 50 90.625Z" fill="#AFB9D2"/>
</svg>
