<svg width="32" height="33" viewBox="0 0 32 33" fill="none" xmlns="http://www.w3.org/2000/svg">
<g clip-path="url(#clip0)">
<path d="M11.238 25.588L6.46394 28.1921C6.18379 28.3448 5.93202 28.5326 5.69775 28.7373C8.48115 31.0841 12.0742 32.5 15.9999 32.5C19.8967 32.5 23.4668 31.1053 26.2424 28.7904C25.9864 28.5743 25.7086 28.3798 25.4007 28.2265L20.2885 25.6707C19.628 25.3405 19.2108 24.6654 19.2108 23.927V21.9213C19.3545 21.7577 19.5187 21.5475 19.6944 21.2994C20.3912 20.3152 20.9183 19.2327 21.2836 18.097C21.9393 17.8947 22.4223 17.2891 22.4223 16.5694V14.4285C22.4223 13.9575 22.2128 13.5367 21.8873 13.242V10.1471C21.8873 10.1471 22.5231 5.33079 16.0005 5.33079C9.47798 5.33079 10.1138 10.1471 10.1138 10.1471V13.242C9.78772 13.5367 9.57881 13.9575 9.57881 14.4285V16.5694C9.57881 17.1334 9.87526 17.6297 10.319 17.9165C10.854 20.2452 12.2547 21.9213 12.2547 21.9213V23.8775C12.2541 24.59 11.8641 25.2463 11.238 25.588Z" fill="#E7ECED"/>
<path d="M16.2735 0.502444C7.43846 0.3515 0.153328 7.3915 0.00238417 16.2265C-0.0833517 21.236 2.1494 25.7384 5.70442 28.7325C5.93687 28.5296 6.18623 28.3437 6.46337 28.1927L11.2374 25.5886C11.8635 25.2469 12.2536 24.5906 12.2536 23.8769V21.9207C12.2536 21.9207 10.8522 20.2446 10.3179 17.9159C9.87469 17.6291 9.57763 17.1334 9.57763 16.5689V14.4279C9.57763 13.9569 9.78714 13.5361 10.1126 13.2415V10.1465C10.1126 10.1465 9.4768 5.33022 15.9994 5.33022C22.5219 5.33022 21.8862 10.1465 21.8862 10.1465V13.2415C22.2122 13.5361 22.4211 13.9569 22.4211 14.4279V16.5689C22.4211 17.2886 21.9381 17.8941 21.2824 18.0964C20.9171 19.2321 20.39 20.3147 19.6933 21.2988C19.5176 21.547 19.3533 21.7571 19.2096 21.9207V23.9264C19.2096 24.6649 19.6268 25.3405 20.2874 25.6701L25.3995 28.2259C25.7062 28.3793 25.9834 28.5731 26.2388 28.7886C29.6863 25.9135 31.9136 21.6146 31.9963 16.7735C32.1485 7.93852 25.1091 0.653387 16.2735 0.502444Z" fill="#556080"/>
</g>
<defs>
<clipPath id="clip0">
<rect width="32" height="32" fill="white" transform="translate(0 0.5)"/>
</clipPath>
</defs>
</svg>
