<svg width="24" height="24" viewBox="0 0 24 24" fill="none" xmlns="http://www.w3.org/2000/svg">
<path d="M18.7739 15.5091C17.8235 16.8145 16.2839 17.6647 14.5492 17.6647H12.1152C11.2744 17.6647 10.5583 17.1309 10.2872 16.3837C9.95254 16.2839 9.62433 16.1543 9.30407 15.9952C8.62584 15.6582 8.01 15.2017 7.46789 14.6361C3.95144 15.4086 1.31961 18.542 1.31961 22.2905V22.7804C1.31961 23.454 1.86564 24 2.53917 24H21.4608C22.1343 24 22.6804 23.454 22.6804 22.7804V22.2905C22.6803 19.3947 21.1096 16.866 18.7739 15.5091Z" fill="white"/>
<path d="M6.17169 12.1224C6.69584 12.1224 7.15207 11.8319 7.38843 11.4032C7.39464 11.4201 7.40096 11.437 7.40733 11.4539C7.40921 11.4589 7.41109 11.464 7.41297 11.4691C7.96746 12.9286 9.04636 14.1521 10.469 14.6867C10.8131 14.14 11.4215 13.7764 12.1152 13.7764H14.5492C14.792 13.7764 15.018 13.7079 15.2161 13.5972C15.5488 13.4111 15.848 12.9392 16.0025 12.689C16.2497 12.2887 16.4412 11.8647 16.6111 11.4024C16.7065 11.5758 16.8378 11.7266 16.995 11.8447V12.4416C16.995 13.7902 15.8979 14.8874 14.5492 14.8874H12.1152C11.6551 14.8874 11.282 15.2605 11.282 15.7206C11.282 16.1808 11.6551 16.5538 12.1152 16.5538H14.5492C16.8167 16.5538 18.6614 14.709 18.6614 12.4416V11.8447C18.9987 11.5913 19.2169 11.1881 19.2169 10.7338V8.22139V7.25799C19.2169 6.79435 18.9895 6.38412 18.6404 6.13189C18.3696 2.7054 15.4948 0 12 0C8.50503 0 5.63031 2.7054 5.35954 6.13183C5.0104 6.38407 4.78302 6.79435 4.78302 7.25793V10.7337C4.78302 11.5028 5.40784 12.1224 6.17169 12.1224ZM12 1.66644C14.5872 1.66644 16.7211 3.64359 16.9705 6.16629C16.8068 6.2951 16.6726 6.45972 16.5802 6.64862C15.794 4.59744 14.039 3.16935 11.9999 3.16935C9.91688 3.16935 8.18998 4.64652 7.42268 6.64043C7.42164 6.64314 7.42064 6.64591 7.4196 6.64868C7.32719 6.45977 7.19305 6.29515 7.02932 6.16635C7.27889 3.64359 9.41278 1.66644 12 1.66644Z" fill="white"/>
</svg>
