<svg width="24" height="24" viewBox="0 0 24 24" fill="none" xmlns="http://www.w3.org/2000/svg">
<path d="M17.5327 11.332C17.22 8.78063 15.2063 6.77204 12.6541 6.4658C12.4344 6.44073 12.2134 6.42816 11.9922 6.42812C9.73668 6.43158 7.70578 7.79471 6.84806 9.88079C5.99034 11.9669 6.47507 14.3643 8.07585 15.9534C8.9271 16.7686 9.4146 17.892 9.42852 19.0705V19.7143H14.5714V19.0672C14.5753 17.9109 15.0456 16.8052 15.8759 16.0005C17.13 14.7905 17.7434 13.0621 17.5326 11.3322V11.332H17.5327Z" fill="white"/>
<path d="M12 24C12.5447 23.9994 13.0301 23.6562 13.2123 23.1428H10.7878C10.9699 23.6562 11.4553 23.9994 12 24Z" fill="white"/>
<path d="M9.85715 21.8572C9.85748 22.0937 10.0491 22.2854 10.2857 22.2857H13.7143C13.9509 22.2854 14.1425 22.0937 14.1429 21.8572V20.5714H9.85715V21.8572Z" fill="white"/>
<path d="M12 3.85716C12.4734 3.85716 12.8572 3.47339 12.8572 3V0.857156C12.8572 0.383766 12.4734 0 12 0C11.5266 0 11.1429 0.383766 11.1429 0.857156V3C11.1429 3.47339 11.5266 3.85716 12 3.85716Z" fill="white"/>
<path d="M4.7662 5.97844C5.10539 6.30239 5.6393 6.30239 5.97848 5.97844C6.13927 5.8177 6.22959 5.59964 6.22959 5.3723C6.22959 5.14495 6.13927 4.92689 5.97848 4.76616L4.46316 3.25111C4.30247 3.09033 4.08445 3 3.85716 3C3.62986 3 3.41184 3.09033 3.25111 3.25111C3.09033 3.4118 3 3.62981 3 3.85716C3 4.0845 3.09033 4.30247 3.25111 4.4632L4.7662 5.97844Z" fill="white"/>
<path d="M3.85716 12C3.85716 11.5266 3.47339 11.1428 3 11.1428H0.857156C0.383953 11.1433 0.00046875 11.5268 0 12C0.00046875 12.4732 0.383953 12.8567 0.857156 12.8572H3C3.47339 12.8572 3.85716 12.4734 3.85716 12Z" fill="white"/>
<path d="M5.59483 17.7984C5.29858 17.7192 4.98264 17.8043 4.76622 18.0216L3.25117 19.5368C3.09039 19.6975 3.00006 19.9156 3.00006 20.1429C3.00006 20.3702 3.09039 20.5882 3.25117 20.7489C3.59027 21.0729 4.12413 21.0729 4.46322 20.7489L5.97851 19.2339C6.19572 19.0175 6.28085 18.7015 6.20168 18.4053C6.12251 18.109 5.89108 17.8776 5.59483 17.7984Z" fill="white"/>
<path d="M19.2338 18.0216C19.0174 17.8044 18.7014 17.7192 18.4052 17.7984C18.1089 17.8776 17.8775 18.1089 17.7984 18.4052C17.7192 18.7014 17.8043 19.0174 18.0215 19.2338L19.5368 20.7488C19.8759 21.0728 20.4098 21.0728 20.7489 20.7488C20.9097 20.5882 21 20.3701 21 20.1428C21 19.9155 20.9097 19.6975 20.7489 19.5368L19.2338 18.0216Z" fill="white"/>
<path d="M23.1429 11.1428H21C20.5266 11.1428 20.1429 11.5266 20.1429 12C20.1429 12.4734 20.5266 12.8572 21 12.8572H23.1429C23.6162 12.8572 24 12.4734 24 12C24 11.5266 23.6162 11.1428 23.1429 11.1428Z" fill="white"/>
<path d="M19.2338 5.97843L20.7488 4.46315C20.9654 4.24664 21.0499 3.93107 20.9707 3.63529C20.8914 3.33951 20.6604 3.10851 20.3646 3.02925C20.0688 2.94998 19.7533 3.03454 19.5367 3.25106L18.0215 4.76611C17.8607 4.92684 17.7704 5.1449 17.7704 5.37225C17.7704 5.59959 17.8607 5.81765 18.0215 5.97839C18.3607 6.30239 18.8947 6.30239 19.2338 5.97843Z" fill="white"/>
</svg>
