<svg width="24" height="24" viewBox="0 0 24 24" fill="none" xmlns="http://www.w3.org/2000/svg">
<path d="M5.01254 4.89217H6.32997V6.20977H5.01254V4.89217Z" fill="white"/>
<path d="M10.2827 4.89217H11.6002V6.20977H10.2827V4.89217Z" fill="white"/>
<path d="M15.5526 4.89217H16.8702V6.20977H15.5526V4.89217Z" fill="white"/>
<path d="M20.8684 8.84189V1.35697C20.8684 0.993059 20.5733 0.698166 20.2095 0.698166H1.67317C1.30927 0.698166 1.01437 0.993059 1.01437 1.35697V15.0149C1.01437 15.3788 1.30927 15.6738 1.67317 15.6738H14.9398V11.4779C14.9398 10.0245 16.1222 8.84189 17.5754 8.84189H20.8684ZM7.64763 12.1384C7.64763 12.5023 7.35265 12.7972 6.98883 12.7972H4.3538C3.98998 12.7972 3.69518 12.5023 3.69518 12.1384V9.5036C3.69518 9.13969 3.98998 8.84462 4.3538 8.84462H6.98883C7.35265 8.84462 7.64763 9.13969 7.64763 9.5036V12.1384ZM7.64763 6.86848C7.64763 7.2323 7.35265 7.52719 6.98883 7.52719H4.3538C3.98998 7.52719 3.69518 7.2323 3.69518 6.86848V4.23363C3.69518 3.86972 3.98998 3.57465 4.3538 3.57465H6.98883C7.35265 3.57465 7.64763 3.86972 7.64763 4.23363V6.86848ZM12.9176 6.86848C12.9176 7.2323 12.6227 7.52719 12.2588 7.52719H9.62377C9.26004 7.52719 8.96514 7.2323 8.96514 6.86848V4.23363C8.96514 3.86972 9.26004 3.57465 9.62377 3.57465H12.2588C12.6227 3.57465 12.9176 3.86972 12.9176 4.23363V6.86848ZM14.8937 7.52719C14.53 7.52719 14.2352 7.2323 14.2352 6.86848V4.23363C14.2352 3.86972 14.53 3.57465 14.8937 3.57465H17.5288C17.8927 3.57465 18.1876 3.86972 18.1876 4.23363V6.86848C18.1876 7.2323 17.8927 7.52719 17.5288 7.52719H14.8937Z" fill="white"/>
<path d="M5.01254 10.1622H6.32997V11.4797H5.01254V10.1622Z" fill="white"/>
<path d="M21.5263 10.1594H17.5754C16.8473 10.1594 16.2571 10.7499 16.2571 11.4779V21.8799C16.2571 22.6079 16.8473 23.1982 17.5754 23.1982H21.5263C22.2542 23.1982 22.8446 22.6079 22.8446 21.8799V11.4779C22.8446 10.7499 22.2542 10.1594 21.5263 10.1594ZM18.2333 12.3529C18.5963 12.3529 18.8921 12.6488 18.8921 13.0118C18.8921 13.3746 18.5963 13.6705 18.2333 13.6705C17.8706 13.6705 17.5746 13.3746 17.5746 13.0118C17.5746 12.6488 17.8706 12.3529 18.2333 12.3529ZM17.5746 15.6467C17.5746 15.2839 17.8706 14.9879 18.2333 14.9879C18.5963 14.9879 18.8921 15.2839 18.8921 15.6467C18.8921 16.0096 18.5963 16.3054 18.2333 16.3054C17.8706 16.3056 17.5746 16.0096 17.5746 15.6467ZM20.5827 19.9725H20.2095V20.3459C20.2095 20.7097 19.9147 21.0046 19.5508 21.0046C19.187 21.0046 18.8921 20.7097 18.8921 20.3459V19.9725H18.5187C18.1549 19.9725 17.8601 19.6777 17.8601 19.3138C17.8601 18.95 18.1549 18.655 18.5187 18.655H18.8921V18.2817C18.8921 17.9179 19.187 17.6231 19.5508 17.6231C19.9147 17.6231 20.2095 17.9179 20.2095 18.2817V18.655H20.5827C20.9467 18.655 21.2416 18.95 21.2416 19.3138C21.2416 19.6777 20.9467 19.9725 20.5827 19.9725ZM20.8636 16.3056C20.501 16.3056 20.205 16.0096 20.205 15.6467C20.205 15.2839 20.501 14.9881 20.8636 14.9881C21.2266 14.9881 21.5224 15.2839 21.5224 15.6467C21.5224 16.0096 21.2266 16.3056 20.8636 16.3056ZM20.8636 13.6705C20.501 13.6705 20.205 13.3746 20.205 13.0118C20.205 12.6488 20.501 12.3529 20.8636 12.3529C21.2266 12.3529 21.5224 12.6488 21.5224 13.0118C21.5224 13.3746 21.2266 13.6705 20.8636 13.6705Z" fill="white"/>
<path d="M12.2587 16.9898H10.9413V18.3046H5.80483C5.44101 18.3046 5.14621 18.5996 5.14621 18.9633C5.14621 19.3271 5.44101 19.6221 5.80483 19.6221H14.9397V18.3046H12.2587V16.9898Z" fill="white"/>
</svg>
