<svg width="24" height="24" viewBox="0 0 24 24" fill="none" xmlns="http://www.w3.org/2000/svg">
<g clip-path="url(#clip0)">
<path d="M3.68685 19.7323C4.97324 19.7323 6.01978 18.6858 6.01978 17.3994C6.01978 16.113 4.97324 15.0665 3.68685 15.0665C2.40046 15.0665 1.35397 16.113 1.35397 17.3994C1.35397 18.6858 2.40051 19.7323 3.68685 19.7323Z" fill="white"/>
<path d="M3.7095 19.7324C1.67883 19.7203 -0.000328077 21.3586 4.80812e-08 23.4204C4.69231e-05 23.7392 0.262406 24 0.581156 24H6.79416C7.11492 24 7.37498 23.7399 7.37498 23.4192C7.37498 21.3861 5.73647 19.7445 3.7095 19.7324Z" fill="white"/>
<path d="M12.6786 19.6278C13.9116 19.2542 14.6083 17.9517 14.2346 16.7187C13.861 15.4856 12.5585 14.789 11.3255 15.1626C10.0924 15.5362 9.39577 16.8387 9.76941 18.0717C10.1431 19.3048 11.4455 20.0014 12.6786 19.6278Z" fill="white"/>
<path d="M12.0221 19.7324C9.99139 19.7203 8.31223 21.3586 8.31256 23.4204C8.31261 23.7391 8.57497 24 8.89372 24H15.1067C15.4275 24 15.6875 23.7399 15.6875 23.4192C15.6875 21.3861 14.049 19.7445 12.0221 19.7324Z" fill="white"/>
<path d="M17.979 17.3994C17.979 18.6858 19.0255 19.7323 20.3119 19.7323C21.5983 19.7323 22.6448 18.6858 22.6448 17.3994C22.6448 16.113 21.5983 15.0665 20.3119 15.0665C19.0255 15.0665 17.979 16.113 17.979 17.3994Z" fill="white"/>
<path d="M20.3345 19.7324C18.3038 19.7203 16.6246 21.3586 16.625 23.4204C16.625 23.7391 16.8874 24 17.2061 24H23.4192C23.74 24 24 23.7399 24 23.4192C24 21.3861 22.3615 19.7445 20.3345 19.7324Z" fill="white"/>
<path d="M4.46872 13.6602C4.85703 13.6602 5.17184 13.3454 5.17184 12.9571V11.4008H11.2969V12.9571C11.2969 13.3454 11.6117 13.6602 12 13.6602C12.3883 13.6602 12.7031 13.3454 12.7031 12.9571V11.4008H18.8281V12.9571C18.8281 13.3454 19.1429 13.6602 19.5312 13.6602C19.9196 13.6602 20.2344 13.3454 20.2344 12.9571V10.6977C20.2344 10.3094 19.9196 9.99459 19.5312 9.99459H12.7031V8.83753H11.2969V9.99459H4.46872C4.08041 9.99459 3.76559 10.3094 3.76559 10.6977V12.9571C3.76559 13.3454 4.08041 13.6602 4.46872 13.6602Z" fill="white"/>
<path d="M5.97501 7.43123H18.025C18.4133 7.43123 18.7281 7.11642 18.7281 6.72811V0.703125C18.7281 0.314812 18.4133 0 18.025 0H5.97501C5.58669 0 5.27188 0.314812 5.27188 0.703125V6.72811C5.27188 7.11647 5.58669 7.43123 5.97501 7.43123ZM15.0125 3.01252C15.4006 3.01252 15.7156 3.32752 15.7156 3.71564C15.7156 4.10377 15.4006 4.41877 15.0125 4.41877C14.6244 4.41877 14.3094 4.10377 14.3094 3.71564C14.3094 3.32752 14.6244 3.01252 15.0125 3.01252ZM12 3.01252C12.3881 3.01252 12.7031 3.32752 12.7031 3.71564C12.7031 4.10377 12.3881 4.41877 12 4.41877C11.6119 4.41877 11.2969 4.10377 11.2969 3.71564C11.2969 3.32752 11.6119 3.01252 12 3.01252ZM8.98748 3.01252C9.3756 3.01252 9.6906 3.32752 9.6906 3.71564C9.6906 4.10377 9.3756 4.41877 8.98748 4.41877C8.59935 4.41877 8.28435 4.10377 8.28435 3.71564C8.28435 3.32752 8.59935 3.01252 8.98748 3.01252Z" fill="white"/>
</g>
<defs>
<clipPath id="clip0">
<rect width="24" height="24" fill="white"/>
</clipPath>
</defs>
</svg>
