<?xml version="1.0" encoding="utf-8"?>
<!-- Generator: Adobe Illustrator 22.0.1, SVG Export Plug-In . SVG Version: 6.00 Build 0)  -->
<svg version="1.1" id="Layer_2" xmlns="http://www.w3.org/2000/svg" xmlns:xlink="http://www.w3.org/1999/xlink" x="0px" y="0px"
	 viewBox="0 0 600 365" style="enable-background:new 0 0 600 365;" xml:space="preserve">
<style type="text/css">
	.st0{fill:#ffffff;}
</style>
<g>
	<path class="st0" d="M291,253.2c-17.6,37.3-35.2,74.7-52.8,112C181.1,245.5,124.1,125.8,67,6.2c35.7,0,71.3,0,107,0
		C213,88.5,252,170.8,291,253.2z"/>
	<path class="st0" d="M291,118.2c-78.3,0-156.7,0-235,0C38,78.9,20,39.5,2,0.2c77.7,0,155.3,0,233,0
		C253.7,39.5,272.3,78.9,291,118.2z"/>
</g>
<path class="st0" d="M425,47.2c-8.7-15.7-17.3-31.3-26-47c-49,0-98,0-147,0l173,365l173-365c-50,0-100,0-150,0
	C440.3,15.8,432.7,31.5,425,47.2z"/>
</svg>
