<svg width="139" height="20" viewBox="0 0 139 20" fill="none" xmlns="http://www.w3.org/2000/svg">
<g clip-path="url(#clip0)">
<path d="M15.9453 13.874C14.9809 15.9178 14.0165 17.9671 13.0521 20.011C9.92332 13.4521 6.80007 6.89312 3.67126 0.339722C5.62744 0.339722 7.57813 0.339722 9.53432 0.339722C11.6713 4.84931 13.8083 9.35894 15.9453 13.874Z" fill="white"/>
<path d="M15.9452 6.47669C11.6548 6.47669 7.35887 6.47669 3.06847 6.47669C2.08217 4.32329 1.09586 2.16438 0.109558 0.0109558C4.36711 0.0109558 8.61919 0.0109558 12.8767 0.0109558C13.9014 2.16438 14.9206 4.32329 15.9452 6.47669Z" fill="white"/>
<path d="M23.2878 2.5863C22.8111 1.72602 22.3398 0.871229 21.8631 0.0109558C19.1782 0.0109558 16.4933 0.0109558 13.8083 0.0109558L23.2878 20.0109L32.7673 0.0109558C30.0275 0.0109558 27.2878 0.0109558 24.5481 0.0109558C24.1261 0.865748 23.7097 1.72602 23.2878 2.5863Z" fill="white"/>
<path d="M52.974 6.1661C53.0697 6.26187 53.1017 6.38956 53.1017 6.54918C53.1017 6.64493 53.0697 6.74069 53.0379 6.8365L50.0052 15.9664C49.9732 16.0941 49.9094 16.1579 49.8136 16.2217C49.7179 16.2856 49.5902 16.3175 49.4625 16.3175C49.3348 16.3175 49.2391 16.2856 49.1114 16.2217C49.0156 16.1579 48.9517 16.0621 48.9198 15.9664L46.366 7.98568L43.876 15.9664C43.7802 16.1898 43.6206 16.3175 43.3333 16.3175C43.2056 16.3175 43.1099 16.2856 43.0141 16.2217C42.9184 16.1579 42.8545 16.0621 42.8226 15.9664L39.7899 6.8365C39.758 6.67687 39.758 6.58112 39.758 6.54918C39.758 6.19802 39.9176 6.03841 40.2368 6.03841C40.3645 6.03841 40.4603 6.07033 40.5561 6.13418C40.6518 6.19802 40.7157 6.26187 40.7795 6.38956L43.4291 14.4022L45.8872 6.48531C45.9191 6.35762 45.9829 6.22995 46.0787 6.1661C46.1744 6.07033 46.3021 6.03841 46.4299 6.03841C46.7171 6.03841 46.9087 6.19802 47.0044 6.48531L49.4625 14.2426L52.0802 6.35762C52.1759 6.13418 52.3675 6.00648 52.6229 6.00648C52.7506 6.00648 52.8782 6.07033 52.974 6.1661Z" fill="white"/>
<path d="M61.3377 6.58107C62.0719 7.02801 62.6144 7.60263 63.0294 8.36876C63.4444 9.13494 63.6363 9.99682 63.6363 10.9864C63.6363 11.1461 63.5725 11.2738 63.4763 11.3695C63.3806 11.4653 63.2531 11.4972 63.0938 11.4972H55.2086C55.2404 12.2314 55.432 12.9018 55.7831 13.4764C56.1343 14.051 56.6131 14.5299 57.1877 14.8491C57.7624 15.1683 58.4327 15.3279 59.1669 15.3279C59.6458 15.3279 60.1566 15.2321 60.6354 15.0726C61.1462 14.9129 61.5293 14.6894 61.8166 14.4022C61.9443 14.3064 62.0719 14.2426 62.1996 14.2426C62.3273 14.2426 62.455 14.2744 62.5506 14.3703C62.6788 14.4979 62.7425 14.6256 62.7425 14.7533C62.7425 14.881 62.6788 15.0087 62.5825 15.1044C62.1677 15.4556 61.6569 15.7748 61.0185 15.9983C60.38 16.2218 59.7416 16.3494 59.1669 16.3494C58.1774 16.3494 57.2835 16.126 56.5174 15.6791C55.7513 15.2321 55.1447 14.6256 54.6978 13.8276C54.2509 13.0295 54.0274 12.1356 54.0274 11.1141C54.0274 10.0926 54.2189 9.19876 54.6339 8.40069C55.0489 7.60263 55.6236 6.99607 56.3578 6.54919C57.092 6.10226 57.922 5.8788 58.8797 5.8788C59.8054 5.91072 60.6354 6.13418 61.3377 6.58107ZM56.4216 7.95376C55.7512 8.59226 55.3362 9.45413 55.2404 10.5395H62.5825C62.4869 9.48607 62.1039 8.62413 61.4654 7.95376C60.795 7.31532 59.965 6.96419 58.9435 6.96419C57.922 6.96419 57.092 7.31532 56.4216 7.95376Z" fill="white"/>
<path d="M74.0431 6.58108C74.8412 7.02802 75.4794 7.66645 75.9262 8.46458C76.3731 9.26264 76.6287 10.1565 76.6287 11.1461C76.6287 12.1356 76.405 13.0295 75.9262 13.8276C75.4794 14.6256 74.8412 15.2641 74.0431 15.711C73.245 16.1579 72.3512 16.4133 71.3612 16.4133C70.4037 16.4133 69.51 16.1898 68.7119 15.743C67.9138 15.296 67.2756 14.6895 66.8281 13.8914C66.3494 13.0933 66.1263 12.2315 66.1263 11.2418V11.2099V2.17578C66.1263 1.98424 66.19 1.85655 66.2856 1.76078C66.3812 1.66502 66.5413 1.60117 66.7006 1.60117C66.8925 1.60117 67.02 1.66502 67.1156 1.76078C67.2113 1.85655 67.2756 1.98424 67.2756 2.17578V8.04958C67.69 7.3792 68.265 6.86839 68.9675 6.48533C69.7012 6.10227 70.4994 5.91073 71.3931 5.91073C72.3194 5.91073 73.245 6.13419 74.0431 6.58108ZM73.4362 14.8171C74.075 14.4341 74.5537 13.9553 74.9369 13.3168C75.2881 12.6783 75.4794 11.976 75.4794 11.178C75.4794 10.3799 75.2881 9.67758 74.9369 9.03914C74.5856 8.4007 74.075 7.88995 73.4362 7.53877C72.7981 7.18764 72.0956 6.99608 71.3294 6.99608C70.5631 6.99608 69.8612 7.18764 69.2225 7.53877C68.5844 7.88995 68.105 8.4007 67.7544 9.03914C67.4031 9.67758 67.2113 10.3799 67.2113 11.178C67.2113 11.976 67.4031 12.6783 67.7544 13.3168C68.105 13.9553 68.6162 14.466 69.2225 14.8171C69.8612 15.2003 70.5631 15.3598 71.3294 15.3598C72.1275 15.3918 72.83 15.2003 73.4362 14.8171Z" fill="white"/>
<path d="M86.8119 6.58113C87.61 7.028 88.2487 7.66644 88.6956 8.46457C89.1425 9.26263 89.3975 10.1564 89.3975 11.1461V15.711C89.3975 15.8706 89.3338 15.9983 89.2381 16.126C89.1425 16.2218 89.0144 16.2856 88.8231 16.2856C88.6638 16.2856 88.5356 16.2218 88.4081 16.126C88.3125 16.0302 88.2488 15.8706 88.2488 15.711V14.2426C87.8338 14.9129 87.2588 15.4237 86.5569 15.8068C85.8225 16.1898 85.0244 16.3814 84.1306 16.3814C83.1406 16.3814 82.2469 16.1579 81.4487 15.6791C80.6506 15.2321 80.0125 14.5937 79.5656 13.7956C79.1188 12.9976 78.8631 12.1038 78.8631 11.1141C78.8631 10.1245 79.0869 9.23069 79.5656 8.43263C80.0125 7.63457 80.6506 6.99607 81.4487 6.54919C82.2469 6.10226 83.1406 5.84688 84.1306 5.84688C85.12 5.91072 86.0138 6.13418 86.8119 6.58113ZM86.2694 14.8171C86.9075 14.466 87.3869 13.9553 87.7375 13.3168C88.0888 12.6783 88.2806 11.976 88.2806 11.1779C88.2806 10.3799 88.0888 9.67763 87.7375 9.03913C87.3869 8.40069 86.8756 7.88994 86.2694 7.53875C85.6306 7.15569 84.9288 6.99607 84.1625 6.99607C83.3963 6.99607 82.6938 7.18763 82.0556 7.53875C81.4169 7.92188 80.9381 8.40069 80.555 9.03913C80.2038 9.67763 80.0125 10.3799 80.0125 11.1779C80.0125 11.976 80.2038 12.6783 80.555 13.3168C80.9063 13.9553 81.4169 14.466 82.0556 14.8171C82.6938 15.1683 83.3963 15.3598 84.1625 15.3598C84.9288 15.3918 85.6306 15.2003 86.2694 14.8171Z" fill="white"/>
<path d="M99.3894 6.45338C100.124 6.83651 100.666 7.37919 101.081 8.11338C101.496 8.84763 101.688 9.70951 101.688 10.6991V15.7748C101.688 15.9344 101.624 16.0621 101.528 16.1898C101.433 16.2856 101.273 16.3494 101.113 16.3494C100.954 16.3494 100.826 16.2856 100.698 16.1898C100.603 16.0941 100.539 15.9344 100.539 15.7748V10.6991C100.539 9.51801 100.188 8.59226 99.5175 7.95376C98.8469 7.31532 97.985 6.99607 96.8994 6.99607C96.2294 6.99607 95.6225 7.12376 95.08 7.37919C94.5375 7.63457 94.0906 7.98569 93.8031 8.46457C93.4837 8.91144 93.3244 9.42219 93.3244 9.96488V15.7429C93.3244 15.9025 93.2606 16.0302 93.1644 16.1579C93.0687 16.2537 92.9412 16.3175 92.7494 16.3175C92.59 16.3175 92.4625 16.2537 92.3344 16.1579C92.2387 16.0621 92.175 15.9025 92.175 15.7429V6.58107C92.175 6.38957 92.2387 6.26188 92.3344 6.1661C92.4306 6.07033 92.59 6.00649 92.7494 6.00649C92.9412 6.00649 93.0687 6.07033 93.1644 6.1661C93.2606 6.26188 93.3244 6.38957 93.3244 6.58107V7.57069C93.7394 7.02801 94.2819 6.64494 94.8881 6.32569C95.495 6.03841 96.1656 5.8788 96.8994 5.8788C97.8575 5.8788 98.655 6.07033 99.3894 6.45338Z" fill="white"/>
<path d="M114.712 1.76078C114.808 1.85655 114.872 1.98424 114.872 2.17578V11.2418V11.2738C114.872 12.2315 114.617 13.1253 114.17 13.9233C113.691 14.7214 113.084 15.328 112.286 15.7748C111.488 16.2218 110.594 16.4452 109.637 16.4452C108.647 16.4452 107.753 16.2218 106.955 15.743C106.157 15.296 105.519 14.6576 105.072 13.8595C104.625 13.0614 104.369 12.1676 104.369 11.178C104.369 10.1884 104.593 9.29452 105.072 8.49645C105.519 7.69839 106.157 7.05995 106.955 6.61302C107.753 6.16612 108.647 5.91074 109.637 5.91074C110.531 5.91074 111.329 6.10227 112.063 6.48533C112.797 6.86839 113.34 7.3792 113.755 8.04958V2.17578C113.755 1.98424 113.819 1.85655 113.914 1.76078C114.01 1.66502 114.17 1.60117 114.329 1.60117C114.489 1.60117 114.617 1.66502 114.712 1.76078ZM111.712 14.8171C112.35 14.4341 112.829 13.9553 113.18 13.3168C113.531 12.6783 113.723 11.976 113.723 11.178C113.723 10.3799 113.531 9.67764 113.18 9.03914C112.829 8.4007 112.318 7.88995 111.712 7.53877C111.073 7.18764 110.371 6.99608 109.605 6.99608C108.839 6.99608 108.136 7.18764 107.498 7.53877C106.859 7.88995 106.381 8.4007 105.997 9.03914C105.646 9.67764 105.455 10.3799 105.455 11.178C105.455 11.976 105.646 12.6783 105.997 13.3168C106.349 13.9553 106.859 14.466 107.498 14.8171C108.136 15.2003 108.839 15.3598 109.605 15.3598C110.403 15.3918 111.105 15.2003 111.712 14.8171Z" fill="white"/>
<path d="M117.777 16.3494C117.586 16.1579 117.49 15.9344 117.49 15.6471C117.49 15.3918 117.586 15.1683 117.777 14.9768C117.969 14.7853 118.192 14.6894 118.447 14.6894C118.703 14.6894 118.926 14.7853 119.118 14.9768C119.309 15.1683 119.405 15.3918 119.405 15.6471C119.405 15.9025 119.309 16.126 119.118 16.3175C118.926 16.5091 118.703 16.6048 118.447 16.6048C118.192 16.6048 117.969 16.541 117.777 16.3494Z" fill="white"/>
<path d="M127.131 15.3279C127.226 15.4237 127.29 15.5833 127.29 15.7429C127.29 15.9025 127.226 16.0302 127.131 16.1579C127.035 16.2537 126.875 16.3175 126.716 16.3175H126.269C125.566 16.3175 124.96 16.1579 124.417 15.8387C123.874 15.5194 123.459 15.1044 123.14 14.5617C122.821 14.0191 122.693 13.3806 122.693 12.7102V7.41106H121.225C121.065 7.41106 120.937 7.37919 120.842 7.28337C120.746 7.18762 120.714 7.05993 120.714 6.90031C120.714 6.74068 120.746 6.613 120.842 6.51725C120.937 6.4215 121.065 6.38956 121.225 6.38956H122.693V3.32497C122.693 3.13344 122.757 3.00575 122.853 2.90998C122.949 2.81421 123.108 2.75037 123.268 2.75037C123.459 2.75037 123.587 2.81421 123.683 2.90998C123.779 3.00575 123.842 3.16536 123.842 3.32497V6.38956H126.332C126.492 6.38956 126.62 6.4215 126.716 6.51725C126.811 6.613 126.843 6.74068 126.843 6.90031C126.843 7.05993 126.811 7.18762 126.716 7.28337C126.62 7.37919 126.492 7.41106 126.332 7.41106H123.842V12.7102C123.842 13.4445 124.066 14.0191 124.513 14.4979C124.96 14.9448 125.534 15.2002 126.269 15.2002H126.684C126.875 15.1683 127.003 15.2321 127.131 15.3279Z" fill="white"/>
<path d="M138.048 6.51725C138.048 6.613 138.048 6.67688 138.016 6.70881L133.771 15.9344C133.642 16.1898 133.451 16.3175 133.164 16.3175C133.036 16.3175 132.941 16.2856 132.844 16.2218C132.749 16.1579 132.685 16.0621 132.621 15.9344L128.312 6.74069C128.28 6.67688 128.28 6.613 128.28 6.54919C128.28 6.32569 128.376 6.16609 128.599 6.07033C128.662 6.03841 128.759 6.00648 128.822 6.00648C129.046 6.00648 129.206 6.10225 129.301 6.32569L133.164 14.6894L136.962 6.29381C137.059 6.07033 137.218 5.97456 137.441 5.97456C137.537 5.97456 137.601 6.00648 137.697 6.03841C137.952 6.13418 138.048 6.29381 138.048 6.51725Z" fill="white"/>
</g>
<defs>
<clipPath id="clip0">
<rect width="138.75" height="20" fill="white"/>
</clipPath>
</defs>
</svg>
